<svg width="39" height="63" viewBox="0 0 39 63" fill="none" xmlns="http://www.w3.org/2000/svg">
<path fill-rule="evenodd" clip-rule="evenodd" d="M3.57064 1.3753C2.42227 1.3753 1.48774 2.24077 1.48774 3.30246L1.48779 59.6986C1.48779 60.7603 2.42222 61.6243 3.57055 61.6243L35.3396 61.6243C36.4895 61.6243 37.4239 60.7604 37.4239 59.6987L37.424 3.3025C37.424 2.24085 36.4894 1.37543 35.3395 1.37543L3.57064 1.3753ZM35.3396 62.9999H3.57064C1.6025 62.9999 0 61.5199 0 59.6988L8.99977e-05 3.30263C8.99977e-05 1.48148 1.60241 4.08192e-05 3.57055 4.08192e-05L35.3396 0C37.3093 0 38.9116 1.48153 38.9116 3.30267L38.9117 59.6989C38.9117 61.52 37.3092 63 35.3396 62.9999Z" fill="black"/>
<path fill-rule="evenodd" clip-rule="evenodd" d="M38.1679 11.0983H0.743994C0.333442 11.0983 0.00012207 10.7917 0.00012207 10.4106C0.000211098 10.0308 0.333353 9.72425 0.743994 9.72425L38.1679 9.72421C38.5786 9.72421 38.9118 10.0309 38.9118 10.4106C38.9118 10.7916 38.5785 11.0983 38.1679 11.0983Z" fill="black"/>
<path fill-rule="evenodd" clip-rule="evenodd" d="M38.1679 51.0878H0.743994C0.333442 51.0878 0.00012207 50.7798 0.00012207 50.4C0.000211098 50.0203 0.333353 49.7123 0.743994 49.7123L38.1679 49.7123C38.5786 49.7123 38.9118 50.0204 38.9118 50.4C38.9118 50.7797 38.5785 51.0878 38.1679 51.0878Z" fill="black"/>
<path fill-rule="evenodd" clip-rule="evenodd" d="M15.8086 54.942C15.4352 54.942 15.1298 55.2229 15.1298 55.5682L15.1299 57.1442C15.1299 57.4896 15.4351 57.7705 15.8086 57.7705L23.1031 57.7704C23.4767 57.7704 23.7803 57.4896 23.7803 57.1443L23.7804 55.5682C23.7804 55.2228 23.4765 54.9421 23.1031 54.9421L15.8086 54.942ZM23.1031 59.1459H15.8086C14.6138 59.1459 13.6421 58.249 13.6421 57.1443L13.6422 55.5682C13.6422 54.4635 14.6137 53.5666 15.8086 53.5666H23.1031C24.2964 53.5666 25.268 54.4635 25.268 55.5682L25.268 57.1442C25.268 58.2489 24.2963 59.1459 23.1031 59.1459Z" fill="black"/>
<path fill-rule="evenodd" clip-rule="evenodd" d="M22.9606 6.23678H15.9496C15.5391 6.23678 15.2058 5.92877 15.2058 5.54906C15.2059 5.16932 15.5389 4.86131 15.9496 4.86131L22.9606 4.86127C23.3712 4.86127 23.7044 5.16936 23.7044 5.54906C23.7044 5.92877 23.3711 6.23678 22.9606 6.23678Z" fill="black"/>
<path fill-rule="evenodd" clip-rule="evenodd" d="M30.5711 6.23678H28.5069C28.0961 6.23678 27.7629 5.92877 27.7629 5.54906C27.763 5.16932 28.0961 4.86131 28.5068 4.86131L30.5711 4.86127C30.9819 4.86127 31.3149 5.16936 31.3149 5.54906C31.315 5.92877 30.9817 6.23678 30.5711 6.23678Z" fill="black"/>
<path fill-rule="evenodd" clip-rule="evenodd" d="M10.4049 6.23678H8.34064C7.92991 6.23678 7.59668 5.92877 7.59668 5.54906C7.59677 5.16932 7.92987 4.86131 8.34055 4.86131L10.4049 4.86127C10.8155 4.86127 11.1486 5.16936 11.1486 5.54906C11.1486 5.92877 10.8154 6.23678 10.4049 6.23678Z" fill="black"/>
<path fill-rule="evenodd" clip-rule="evenodd" d="M7.13484 41.7977H16.2472V33.3713H7.13484V41.7977ZM16.9911 43.1731H6.39114C5.98037 43.1731 5.64709 42.8651 5.64709 42.4854L5.64718 32.6836C5.64718 32.3039 5.98033 31.9959 6.39101 31.9959H16.9911C17.4017 31.9959 17.7348 32.304 17.7348 32.6836V42.4854C17.7348 42.8651 17.4017 43.1732 16.9911 43.1731Z" fill="black"/>
<path fill-rule="evenodd" clip-rule="evenodd" d="M7.13484 27.4393H16.2472V19.0145H7.13484V27.4393ZM16.9911 28.8149H6.39114C5.98037 28.8149 5.64709 28.5069 5.64709 28.1271L5.64718 18.3268C5.64718 17.9471 5.98033 17.6391 6.39101 17.6391L16.9911 17.639C17.4017 17.639 17.7348 17.9471 17.7348 18.3268V28.1271C17.7348 28.5068 17.4017 28.8149 16.9911 28.8149Z" fill="black"/>
<path fill-rule="evenodd" clip-rule="evenodd" d="M22.663 27.4393H31.7767V19.0145H22.663V27.4393ZM32.5206 28.8149H21.9191C21.5085 28.8149 21.1751 28.5069 21.1751 28.1271L21.1753 18.3268C21.1753 17.9471 21.5084 17.6391 21.9191 17.6391L32.5206 17.639C32.9314 17.639 33.2645 17.9471 33.2645 18.3268L33.2646 28.1271C33.2646 28.5068 32.9313 28.8149 32.5206 28.8149Z" fill="black"/>
<path fill-rule="evenodd" clip-rule="evenodd" d="M22.663 41.7977H31.7767V33.3713H22.663V41.7977ZM32.5206 43.1731H21.9191C21.5085 43.1731 21.1751 42.8651 21.1751 42.4854L21.1753 32.6836C21.1753 32.3039 21.5084 31.9959 21.9191 31.9959H32.5206C32.9314 31.9959 33.2645 32.304 33.2645 32.6836L33.2646 42.4854C33.2646 42.8651 32.9313 43.1732 32.5206 43.1731Z" fill="black"/>
<path fill-rule="evenodd" clip-rule="evenodd" d="M10.2606 22.0964V24.3574L12.3775 23.227L10.2606 22.0964ZM9.51673 26.2358C9.38826 26.2358 9.25948 26.2058 9.14481 26.1442C8.91557 26.0208 8.77286 25.7931 8.77286 25.5481L8.77299 20.9058C8.77299 20.6594 8.91543 20.433 9.14481 20.3098C9.37589 20.1865 9.65931 20.1866 9.88864 20.3098L14.2372 22.6309C14.4682 22.7541 14.609 22.9806 14.609 23.227C14.6091 23.472 14.4681 23.6998 14.2372 23.823L9.88877 26.1441C9.77402 26.2057 9.64537 26.2358 9.51673 26.2358Z" fill="black"/>
<path fill-rule="evenodd" clip-rule="evenodd" d="M25.7797 25.8489C25.7579 25.8489 25.7361 25.8475 25.7145 25.846C25.4897 25.8274 25.2852 25.7157 25.1596 25.5423L24.0439 23.9949C23.816 23.6796 23.909 23.2527 24.2499 23.0406C24.5926 22.8314 25.0543 22.916 25.282 23.2326L25.8834 24.0651L29.24 20.8169C29.5236 20.5432 29.9947 20.5332 30.2907 20.7954C30.5884 21.0576 30.5991 21.4932 30.3155 21.7668L26.3173 25.6368C26.1763 25.773 25.981 25.8489 25.7797 25.8489Z" fill="black"/>
<path fill-rule="evenodd" clip-rule="evenodd" d="M11.6912 40.8502C11.2804 40.8502 10.9471 40.5437 10.9471 40.1626L10.9472 35.0045C10.9472 34.6248 11.2803 34.3167 11.691 34.3167C12.1017 34.3167 12.4349 34.6248 12.4349 35.0045V40.1626C12.4349 40.5437 12.1017 40.8503 11.6912 40.8502Z" fill="black"/>
<path fill-rule="evenodd" clip-rule="evenodd" d="M14.4807 38.2715H8.90173C8.49092 38.2715 8.15768 37.9635 8.15768 37.5838C8.15777 37.2041 8.49087 36.896 8.90156 36.896L14.4807 36.896C14.8912 36.896 15.2244 37.2041 15.2244 37.5838C15.2244 37.9635 14.8912 38.2716 14.4807 38.2715Z" fill="black"/>
<path fill-rule="evenodd" clip-rule="evenodd" d="M30.0103 38.2715H24.4298C24.0192 38.2715 23.6859 37.9635 23.6859 37.5838C23.686 37.2041 24.0191 36.896 24.4298 36.896L30.0103 36.896C30.4211 36.896 30.7541 37.2041 30.7541 37.5838C30.7542 37.9635 30.421 38.2716 30.0103 38.2715Z" fill="black"/>
</svg>
