<svg width="62" height="62" viewBox="0 0 62 62" fill="none" xmlns="http://www.w3.org/2000/svg">
<path d="M59.1769 47.1358H53.2454V43.5774C53.2454 41.4976 51.5634 39.8121 49.4879 39.8121H36.4446L31.9492 35.3075V31.8477H33.5034C34.2018 31.8477 34.7822 31.4041 34.9297 30.7437L35.3822 28.7921C35.9429 28.6048 36.4839 28.3781 37.0052 28.1218L38.6971 29.1765C39.2578 29.5313 39.9857 29.4426 40.448 28.9793L44.0482 25.3717C44.5204 24.8986 44.5991 24.179 44.245 23.6172L43.1925 21.9218C43.4482 21.3994 43.6646 20.8572 43.8613 20.2954L45.809 19.842C46.4582 19.6941 46.9008 19.1224 46.9008 18.4521V13.3561C46.9008 12.6859 46.4484 12.124 45.7991 11.9663L43.8515 11.5129C43.6646 10.951 43.4384 10.4089 43.1826 9.88649L44.2351 8.1911C44.5892 7.62925 44.5007 6.89984 44.0384 6.43657L40.4382 2.82893C39.9759 2.39523 39.2578 2.30652 38.6971 2.66137L37.0052 3.71606C36.4839 3.45978 35.933 3.23307 35.3822 3.04579L34.9297 1.09412C34.7822 0.453418 34.2116 0 33.5526 0H28.4671C27.7982 0 27.2375 0.453418 27.0801 1.10397L26.6276 3.05564C26.0768 3.23307 25.5358 3.45978 25.0144 3.71606L23.3225 2.66137C22.7619 2.30652 22.0438 2.39523 21.5716 2.86836L17.9714 6.47599C17.4993 6.94913 17.4206 7.66868 17.7747 8.23053L18.8272 9.92591C18.5715 10.4483 18.3551 10.9905 18.1583 11.5523L16.2107 12.0057C15.5615 12.1536 15.109 12.7253 15.109 13.3955V18.4916C15.109 19.152 15.5615 19.7237 16.2107 19.8814L18.1583 20.3348C18.3452 20.8967 18.5715 21.4388 18.8272 21.9612L17.7747 23.6566C17.4206 24.2184 17.5091 24.9479 17.9714 25.4111L21.5716 29.0188C22.0438 29.4919 22.7619 29.5707 23.3225 29.2159L25.0144 28.1612C25.5358 28.4175 26.0768 28.6343 26.6375 28.8315L26.9326 30.0932C27.1785 31.1577 28.0048 31.8773 28.9884 31.8773H30.0803V35.337L25.585 39.8417H12.5318C10.4563 39.8417 8.77424 41.5272 8.77424 43.607V47.1653H2.81326C1.25908 47.1653 0 48.427 0 49.9844V54.4299C0 55.9873 1.25908 57.249 2.81326 57.249H16.6238C18.178 57.249 19.4371 55.9873 19.4371 54.4299V49.9844C19.4371 48.427 18.178 47.1653 16.6238 47.1653H10.6629V43.607C10.6629 42.572 11.5088 41.7243 12.5416 41.7243H25.585L30.0803 46.2289V51.739C27.6802 52.1825 25.8505 54.2919 25.8505 56.8251C25.8505 59.6738 28.172 62 31.0148 62C33.8575 62 36.179 59.6738 36.179 56.8251C36.179 54.2919 34.3494 52.1825 31.9492 51.739V46.2289L36.4446 41.7243H49.4879C50.5207 41.7243 51.3667 42.572 51.3667 43.607V47.1653H45.3762C43.822 47.1653 42.5629 48.427 42.5629 49.9844V54.4299C42.5629 55.9873 43.822 57.249 45.3762 57.249H59.1867C60.7409 57.249 62 55.9873 62 54.4299V49.9844C62 48.3975 60.7311 47.1358 59.1769 47.1358ZM28.7523 29.6397L28.3982 28.1218C28.3589 27.9641 28.2802 27.8162 28.172 27.6881L27.8572 27.3529C27.749 27.2347 27.6113 27.1459 27.4539 27.0967C26.8145 26.8897 26.2047 26.6432 25.6341 26.3475C25.4964 26.2785 25.3489 26.2391 25.2013 26.2391C25.1915 26.2391 25.1817 26.2391 25.1718 26.2391L24.7095 26.2588C24.5423 26.2687 24.3849 26.318 24.2472 26.3968L22.6438 27.4022L19.565 24.317L20.5683 22.7103C20.6568 22.5723 20.706 22.4146 20.706 22.2471L20.7257 21.7838C20.7355 21.6261 20.6962 21.4684 20.6175 21.3205C20.3224 20.7488 20.0765 20.1377 19.8699 19.497C19.8207 19.3393 19.7322 19.2013 19.6142 19.0928L19.2699 18.7676C19.1518 18.6591 19.0043 18.5803 18.8469 18.5409L16.9976 18.1072V13.7405L18.8469 13.3068C19.0043 13.2674 19.1518 13.1886 19.2699 13.0801L19.6142 12.7647C19.7322 12.6563 19.8207 12.5183 19.8699 12.3606C20.0765 11.7199 20.3224 11.1087 20.6175 10.537C20.6863 10.399 20.7257 10.2315 20.7257 10.0738L20.706 9.61049C20.6962 9.44293 20.647 9.28522 20.5683 9.14722L19.565 7.54054L22.6438 4.45533L24.4734 5.59873C24.7587 5.77615 25.1226 5.78601 25.4177 5.6283C26.0571 5.28331 26.7358 4.9876 27.4539 4.76089C27.6113 4.71161 27.749 4.62289 27.8572 4.50461L28.172 4.15962C28.2802 4.04134 28.3589 3.89348 28.3982 3.73577L28.831 1.88267H33.1886L33.6805 3.99205C33.6903 4.04134 33.71 4.08076 33.7198 4.13005C33.828 4.40604 34.0641 4.61304 34.3494 4.69189C35.0674 4.90874 35.7462 5.17488 36.3855 5.51002C36.5331 5.57901 36.6905 5.61844 36.8479 5.61844L37.32 5.59873C37.4872 5.58887 37.6446 5.53959 37.7823 5.46073L39.3857 4.45533L42.4645 7.54054L41.4612 9.14722C41.3727 9.28522 41.3235 9.44293 41.3235 9.61049L41.3038 10.0738C41.294 10.2315 41.3333 10.3892 41.412 10.537C41.7071 11.1087 41.953 11.7199 42.1596 12.3606C42.2088 12.5183 42.2973 12.6563 42.4154 12.7647L42.7596 13.0801C42.8777 13.1886 43.0252 13.2674 43.1925 13.3068L45.0417 13.7405V18.1072L43.1925 18.5409C43.0351 18.5803 42.8875 18.6591 42.7695 18.7676L42.4252 19.083C42.3072 19.1914 42.2186 19.3294 42.1694 19.4871C41.9629 20.1278 41.717 20.739 41.4219 21.3107C41.353 21.4486 41.3137 21.6162 41.3137 21.7739L41.3333 22.2471C41.3432 22.4146 41.3924 22.5723 41.4711 22.7103L42.4744 24.317L39.3955 27.4022L37.7922 26.3968C37.6545 26.3081 37.4971 26.2588 37.3298 26.2588L36.8675 26.2391C36.7101 26.2293 36.5528 26.2687 36.4052 26.3475C35.8347 26.6432 35.2248 26.8897 34.5854 27.0967C34.4281 27.1459 34.2903 27.2347 34.1821 27.3529L33.8674 27.6979C33.7592 27.8162 33.6805 27.9641 33.6411 28.1218L33.2083 29.9749H28.9983C28.9196 29.9749 28.8114 29.8665 28.7523 29.6397ZM17.5583 49.9548V54.4003C17.5583 54.9227 17.1353 55.3367 16.6238 55.3367H2.81326C2.29192 55.3367 1.87879 54.9129 1.87879 54.4003V49.9548C1.87879 49.4324 2.30176 49.0184 2.81326 49.0184H16.6238C17.1353 49.0184 17.5583 49.4324 17.5583 49.9548ZM34.3002 56.7857C34.3002 58.5994 32.8247 60.0779 31.0148 60.0779C29.2048 60.0779 27.7293 58.5994 27.7293 56.7857C27.7293 54.972 29.2048 53.4935 31.0148 53.4935C32.8247 53.4935 34.3002 54.972 34.3002 56.7857ZM31.0148 44.4744L27.2965 40.7485L31.0148 37.0226L34.733 40.7485L31.0148 44.4744ZM60.1212 54.4003C60.1212 54.9227 59.6982 55.3367 59.1867 55.3367H45.3762C44.8548 55.3367 44.4417 54.9129 44.4417 54.4003V49.9548C44.4417 49.4324 44.8647 49.0184 45.3762 49.0184H59.1867C59.7081 49.0184 60.1212 49.4423 60.1212 49.9548V54.4003Z" fill="#202020"/>
</svg>
