<svg width="45" height="56" viewBox="0 0 45 56" fill="none" xmlns="http://www.w3.org/2000/svg">
<path d="M0.655255 44.3751H8.83744C8.94888 48.6799 11.1361 52.6557 14.7479 55.0616C14.855 55.1328 14.9808 55.171 15.11 55.171H29.0955C29.2247 55.171 29.3505 55.1328 29.4576 55.0616C33.0693 52.6557 35.2566 48.6799 35.368 44.3751H43.5511C43.9114 44.3751 44.2038 44.0832 44.2038 43.7234C44.2038 42.2318 44.2051 10.1855 44.2055 0.651626C44.2055 0.291876 43.9131 0 43.5528 0H0.652705C0.29236 0 0 0.291876 0 0.651626C0.000174055 3.62618 0.00229725 39.4831 0.00254963 43.7234C0.00254963 44.0832 0.294909 44.3751 0.655255 44.3751ZM28.8949 53.8678H15.3105C12.245 51.7535 10.3737 48.3668 10.1721 44.6831H11.866C12.2263 44.6831 12.5187 44.3912 12.5187 44.0314C12.5187 43.6717 12.2263 43.3798 11.866 43.3798H10.1654C10.3179 40.5767 11.4372 38.0325 13.2026 36.0681L14.4029 37.2657C14.6579 37.5204 15.0708 37.5203 15.3258 37.2657C15.5808 37.0112 15.5808 36.5988 15.3258 36.3443L14.1256 35.1466C16.0934 33.3839 18.642 32.2661 21.45 32.1137V33.8116C21.45 34.1713 21.7424 34.4632 22.1027 34.4632C22.4631 34.4632 22.7554 34.1713 22.7554 33.8116V32.1137C25.5634 32.2661 28.1121 33.3839 30.0799 35.1466L28.8796 36.3443C28.6247 36.5988 28.6247 37.0112 28.8796 37.2657C29.1356 37.5213 29.5487 37.5192 29.8026 37.2657L31.0029 36.0681C32.7683 38.0325 33.8875 40.5767 34.0401 43.3798H32.3395C31.9791 43.3798 31.6868 43.6717 31.6868 44.0314C31.6868 44.3912 31.9791 44.6831 32.3395 44.6831H34.0334C33.8318 48.3668 31.9604 51.7535 28.8949 53.8678ZM42.8984 43.0718H35.33C34.8296 36.1501 29.0562 30.7775 22.1027 30.7775C15.1525 30.7775 9.37607 36.1469 8.87547 43.0718H1.30796V8.69175H42.8984V43.0718ZM1.30541 1.30325H42.9001V7.3851H1.30541V1.30325Z" fill="black"/>
<path d="M6.35623 2.00327C5.06357 2.00327 4.01141 3.05367 4.01141 4.3442C4.01141 5.63473 5.06356 6.68429 6.35623 6.68429C7.64889 6.68429 8.70018 5.63473 8.70018 4.3442C8.70018 3.05368 7.64889 2.00327 6.35623 2.00327ZM6.35623 5.38103C5.78341 5.38103 5.31682 4.91607 5.31682 4.3442C5.31682 3.77233 5.7834 3.30652 6.35623 3.30652C6.92905 3.30652 7.39477 3.77233 7.39477 4.3442C7.39477 4.91607 6.92904 5.38103 6.35623 5.38103Z" fill="black"/>
<path d="M12.8051 2.00327C11.5124 2.00327 10.4611 3.05367 10.4611 4.3442C10.4611 5.63473 11.5124 6.68429 12.8051 6.68429C14.0977 6.68429 15.1499 5.63473 15.1499 4.3442C15.1499 3.05368 14.0977 2.00327 12.8051 2.00327ZM12.8051 5.38103C12.2323 5.38103 11.7665 4.91607 11.7665 4.3442C11.7665 3.77233 12.2323 3.30652 12.8051 3.30652C13.3779 3.30652 13.8445 3.77233 13.8445 4.3442C13.8445 4.91607 13.3779 5.38103 12.8051 5.38103Z" fill="black"/>
<path d="M19.2548 2.00327C17.9621 2.00327 16.9108 3.05367 16.9108 4.3442C16.9108 5.63473 17.9621 6.68429 19.2548 6.68429C20.5474 6.68429 21.5996 5.63473 21.5996 4.3442C21.5996 3.05368 20.5474 2.00327 19.2548 2.00327ZM19.2548 5.38103C18.682 5.38103 18.2162 4.91607 18.2162 4.3442C18.2162 3.77233 18.682 3.30652 19.2548 3.30652C19.8276 3.30652 20.2942 3.77233 20.2942 4.3442C20.2942 4.91607 19.8276 5.38103 19.2548 5.38103Z" fill="black"/>
<path d="M39.5414 3.69254H24.7917C24.4314 3.69254 24.139 3.98441 24.139 4.34416C24.139 4.70391 24.4314 4.99579 24.7917 4.99579H39.5413C39.9017 4.99579 40.194 4.70391 40.194 4.34416C40.194 3.98441 39.9017 3.69254 39.5414 3.69254Z" fill="black"/>
<path d="M12.3342 22.3242C13.9023 22.3242 18.1304 19.9561 19.3882 19.2298C19.5905 19.1127 19.7154 18.8972 19.7146 18.6638C19.7137 18.4305 19.5888 18.2159 19.3856 18.0996C17.7607 17.1731 13.8215 15.0171 12.3342 15.0171C10.3141 15.0171 8.67041 16.6538 8.67041 18.6655C8.67041 20.6832 10.3141 22.3242 12.3342 22.3242ZM12.3342 16.3204C12.8985 16.3204 14.798 17.0594 17.7318 18.6681C14.9306 20.2157 12.9308 21.0209 12.3342 21.0209C11.0339 21.0209 9.97582 19.9646 9.97582 18.6655C9.97582 17.3725 11.0339 16.3204 12.3342 16.3204Z" fill="black"/>
<path d="M12.3342 25.4516C14.3518 25.4516 18.7398 23.1768 22.1971 21.1829C26.7532 24.055 29.9173 25.4516 31.8636 25.4516C35.6166 25.4516 38.6694 22.4073 38.6694 18.6655C38.6694 14.9288 35.6166 11.8888 31.8636 11.8888C29.8706 11.8888 25.543 14.1219 22.1316 16.0802C20.1837 14.8644 15.1303 11.8888 12.3342 11.8888C8.58629 11.8888 5.53778 14.9288 5.53778 18.6655C5.53778 22.4073 8.58629 25.4516 12.3342 25.4516ZM12.3342 13.192C14.4207 13.192 18.7185 15.454 21.7653 17.3911C21.971 17.5209 22.2327 17.5277 22.4435 17.4047C27.0694 14.7278 30.5021 13.192 31.8636 13.192C34.8968 13.192 37.3639 15.6475 37.3639 18.6655C37.3639 21.6886 34.8968 24.1483 31.8636 24.1483C30.7001 24.1483 28.17 23.4237 22.7223 19.9722L22.5617 19.8703C22.4546 19.8033 22.3339 19.7694 22.2123 19.7694C22.0993 19.7694 21.9854 19.7991 21.8843 19.8576C17.1938 22.5846 13.7136 24.1483 12.3342 24.1483C9.30613 24.1483 6.84319 21.6886 6.84319 18.6655C6.84319 15.6475 9.30613 13.192 12.3342 13.192Z" fill="black"/>
<path d="M31.8635 22.3242C33.8888 22.3242 35.5359 20.6832 35.5359 18.6655C35.5359 16.6538 33.8888 15.0171 31.8635 15.0171C30.378 15.0171 26.4371 17.1731 24.8121 18.0996C24.609 18.2159 24.4841 18.4305 24.4832 18.6638C24.4824 18.8972 24.6073 19.1127 24.8096 19.2298C26.0682 19.9561 30.2972 22.3242 31.8635 22.3242ZM31.8635 16.3204C33.169 16.3204 34.2305 17.3725 34.2305 18.6655C34.2305 19.9646 33.169 21.0209 31.8635 21.0209C31.2678 21.0209 29.268 20.2149 26.466 18.6681C29.4006 17.0594 31.3001 16.3204 31.8635 16.3204Z" fill="black"/>
<path d="M22.7554 41.5775V38.9058C22.7554 38.546 22.4631 38.2542 22.1027 38.2542C21.7424 38.2542 21.45 38.546 21.45 38.9058V41.5775C20.359 41.8675 19.5488 42.8528 19.5488 44.0314C19.5488 45.4373 20.6945 46.5811 22.1027 46.5811C23.5109 46.5811 24.6566 45.4373 24.6566 44.0314C24.6566 42.8528 23.8464 41.8675 22.7554 41.5775ZM22.1027 45.2778C21.4143 45.2778 20.8542 44.7187 20.8542 44.0314C20.8542 43.345 21.4143 42.7859 22.1027 42.7859C22.7911 42.7859 23.3512 43.345 23.3512 44.0314C23.3512 44.7187 22.7911 45.2778 22.1027 45.2778Z" fill="black"/>
</svg>
