<svg width="56" height="53" viewBox="0 0 56 53" fill="none" xmlns="http://www.w3.org/2000/svg">
<path d="M27.5087 13.032H8.88398V7.75758C13.3411 6.62603 12.5906 0.0649806 7.95054 0C3.31014 0.0654472 2.56065 6.62682 7.01732 7.75758V13.032H2.42721C1.08919 13.032 0 14.0711 0 15.3485V30.6259C0 31.9038 1.08919 32.9428 2.42721 32.9428H8.01992V36.0883H4.22188C2.99961 36.0883 2.00521 37.0827 2.00521 38.3049V50.7755C2.00521 51.9978 2.99961 52.9922 4.22188 52.9922H25.7141C26.9363 52.9922 27.9307 51.9978 27.9307 50.7755V38.3049C27.9307 37.0827 26.9363 36.0883 25.7141 36.0883H21.916V32.9428H27.5087C28.8467 32.9428 29.9359 31.9038 29.9359 30.6259V15.3485C29.9359 14.0711 28.8467 13.032 27.5087 13.032ZM5.87617 3.94068C5.94798 1.20592 9.95372 1.20646 10.0251 3.94075C9.95332 6.67545 5.94758 6.67491 5.87617 3.94068ZM26.0641 38.3049V50.7755C26.0641 50.9715 25.91 51.1255 25.7141 51.1255H4.22188C4.02591 51.1255 3.87188 50.9715 3.87188 50.7755V38.3049C3.87188 38.109 4.02591 37.9549 4.22188 37.9549H8.95326H20.9827H25.7141C25.91 37.9549 26.0641 38.109 26.0641 38.3049ZM20.0493 36.0883H9.88659V32.9428H20.0493V36.0883ZM28.0693 30.6259C28.0693 30.8702 27.8122 31.0762 27.5087 31.0762H20.9827H8.95326H2.42721C2.1237 31.0762 1.86667 30.8702 1.86667 30.6259V15.3485C1.86667 15.1047 2.1237 14.8987 2.42721 14.8987H27.5087C27.8122 14.8987 28.0693 15.1047 28.0693 15.3485V30.6259Z" fill="black"/>
<path d="M10.8892 19.9801C10.8892 19.4647 10.4718 19.0468 9.95587 19.0468H5.94545C5.42956 19.0468 5.01212 19.4647 5.01212 19.9801C5.01212 20.4955 5.42956 20.9134 5.94545 20.9134H9.95587C10.4718 20.9134 10.8892 20.4955 10.8892 19.9801Z" fill="black"/>
<path d="M23.9905 19.0468H19.9801C18.7606 19.0517 18.7586 20.9083 19.9801 20.9134L23.9905 20.9134C25.2099 20.9084 25.212 19.0519 23.9905 19.0468Z" fill="black"/>
<path d="M18.9775 23.0567H10.9585C10.4426 23.0567 10.0251 23.4746 10.0251 23.99V28C10.0251 28.5159 10.4426 28.9333 10.9585 28.9333H18.9775C19.4934 28.9333 19.9108 28.5159 19.9108 28V23.99C19.9108 23.4746 19.4934 23.0567 18.9775 23.0567ZM18.0441 27.0666H11.8918V24.9233H18.0441V27.0666Z" fill="black"/>
<path d="M10.0762 40.0987C8.94232 40.0987 8.01993 41.0211 8.01993 42.1549V45.9238C8.01993 47.0577 8.94232 47.9801 10.0762 47.9801H19.8598C20.9936 47.9801 21.916 47.0577 21.916 45.9238V42.1549C21.916 41.0211 20.9936 40.0987 19.8598 40.0987H10.0762ZM20.0494 42.1549V45.9238C20.0494 46.0305 19.9664 46.1134 19.8598 46.1134H10.0762C9.96954 46.1134 9.88659 46.0305 9.88659 45.9238V42.1549C9.88659 42.0483 9.96954 41.9654 10.0762 41.9654H19.8598C19.9664 41.9654 20.0494 42.0483 20.0494 42.1549Z" fill="black"/>
<path d="M52.6404 1.00668H20.403C18.55 1.00668 17.0424 2.50968 17.0424 4.3572V10.2279C17.0565 11.4521 18.8988 11.4476 18.9091 10.2279L18.9091 4.3572C18.9091 3.53917 19.579 2.87335 20.403 2.87335H52.6404C53.4634 2.87335 54.1333 3.53917 54.1333 4.3572V22.5668C54.1333 23.3903 53.4634 24.0602 52.6404 24.0602H49.3828C48.8416 24.0469 48.3845 24.5622 48.455 25.097L48.8314 28.4603L44.7043 24.3336C44.5293 24.1586 44.2923 24.0602 44.0444 24.0602H32.7323C31.5153 24.0648 31.5088 25.9217 32.7324 25.9269L43.6579 25.9269L49.3947 31.664C49.9825 32.2909 51.1051 31.7482 50.9824 30.9002L50.4264 25.9269H52.6404C54.4925 25.9269 56 24.4193 56 22.5668V4.3572C56 2.50968 54.4925 1.00668 52.6404 1.00668Z" fill="black"/>
<path d="M49.0519 9.02203H33.0121C31.7965 9.02628 31.7875 10.8835 33.0122 10.8887L49.0519 10.8887C50.2675 10.8845 50.2765 9.02724 49.0519 9.02203Z" fill="black"/>
<path d="M49.052 14.0341H44.0398C42.8207 14.0391 42.8181 15.8957 44.0399 15.9008L49.052 15.9008C50.2711 15.8959 50.2737 14.0393 49.052 14.0341Z" fill="black"/>
<path d="M35.1513 14.0341C33.9316 14.0392 33.93 15.8957 35.1514 15.9008L38.3587 15.9008C39.5784 15.8958 39.58 14.0393 38.3587 14.0342L35.1513 14.0341Z" fill="black"/>
</svg>
