<svg width="30" height="30" viewBox="0 0 30 30" fill="none" xmlns="http://www.w3.org/2000/svg">
<g clip-path="url(#clip0_1_532)">
<path d="M0 4.00223C0 3.03696 0.337847 2.24063 1.01351 1.61324C1.68918 0.985816 2.56758 0.672119 3.64865 0.672119C4.71043 0.672119 5.56949 0.98098 6.22587 1.59876C6.90153 2.23583 7.23938 3.06592 7.23938 4.08911C7.23938 5.01575 6.91121 5.78793 6.25483 6.40571C5.57916 7.04278 4.69112 7.36131 3.59073 7.36131H3.56178C2.49999 7.36131 1.64094 7.04278 0.984556 6.40571C0.328176 5.76864 0 4.96748 0 4.00223ZM0.376448 29.3401V9.99644H6.80502V29.3401H0.376448ZM10.3668 29.3401H16.7954V18.5389C16.7954 17.8632 16.8726 17.342 17.027 16.9752C17.2973 16.3188 17.7075 15.7638 18.2577 15.3101C18.8079 14.8565 19.4981 14.6296 20.3282 14.6296C22.4904 14.6296 23.5714 16.0872 23.5714 19.0022V29.3401H30V18.2493C30 15.3922 29.3243 13.2252 27.973 11.7484C26.6216 10.2715 24.8359 9.53312 22.6158 9.53312C20.1255 9.53312 18.1853 10.6046 16.7954 12.7474V12.8053H16.7664L16.7954 12.7474V9.99644H10.3668C10.4054 10.6142 10.4247 12.535 10.4247 15.759C10.4247 18.9829 10.4054 23.5099 10.3668 29.3401Z" fill="#0A66C2"/>
</g>
<defs>
<clipPath id="clip0_1_532">
<rect width="30" height="30" fill="white"/>
</clipPath>
</defs>
</svg>
