<svg width="53" height="54" viewBox="0 0 53 54" fill="none" xmlns="http://www.w3.org/2000/svg">
<path d="M5.28031 39.767H0.667188C0.295469 39.767 0 39.4725 0 39.102V4.40801C0 4.03751 0.295469 3.74301 0.667188 3.74301H23.4659C23.8377 3.74301 24.1331 4.03751 24.1331 4.40801C24.1331 4.77851 23.8377 5.07301 23.4659 5.07301H1.33438V38.437H5.28031C5.65203 38.437 5.9475 38.7315 5.9475 39.102C5.9475 39.4725 5.6425 39.767 5.28031 39.767Z" fill="black"/>
<path d="M52.2694 39.767H13.4772C13.1055 39.767 12.81 39.4725 12.81 39.102C12.81 38.7315 13.1055 38.437 13.4772 38.437H51.6117V5.07301H35.1798C34.8081 5.07301 34.5127 4.77851 34.5127 4.40801C34.5127 4.03751 34.8081 3.74301 35.1798 3.74301H52.2694C52.6411 3.74301 52.9366 4.03751 52.9366 4.40801V39.102C52.9366 39.463 52.6411 39.767 52.2694 39.767Z" fill="black"/>
<path d="M38.6111 53.58H14.3255C13.9538 53.58 13.6583 53.2855 13.6583 52.915C13.6583 52.6775 13.7917 52.4495 14.0014 52.3355C16.6797 50.8345 18.0427 49.552 18.0427 48.526C18.0427 47.823 17.3659 47.082 16.022 46.3315C15.698 46.151 15.5836 45.7425 15.7647 45.429C15.8791 45.22 16.1078 45.087 16.3461 45.087H36.5809C36.9527 45.087 37.2481 45.3815 37.2481 45.752C37.2481 45.9895 37.1147 46.2175 36.905 46.3315C35.5706 47.082 34.8939 47.823 34.8939 48.526C34.8939 49.552 36.2569 50.8345 38.9352 52.3355C39.2592 52.516 39.3736 52.9245 39.1925 53.238C39.0781 53.447 38.8494 53.58 38.6111 53.58ZM16.6606 52.25H36.2855C34.4269 50.939 33.5691 49.7515 33.5691 48.526C33.5691 47.7755 33.8931 47.082 34.5508 46.417H18.3953C19.053 47.082 19.377 47.7755 19.377 48.526C19.377 49.761 18.5192 50.939 16.6606 52.25Z" fill="black"/>
<path d="M18.4716 46.417C18.0999 46.417 17.8044 46.1225 17.8044 45.752C17.8044 45.619 17.8425 45.486 17.9283 45.372L22.5224 38.7125C22.732 38.4085 23.1419 38.3325 23.4469 38.5415C23.7519 38.7505 23.8281 39.159 23.6184 39.463L19.0244 46.1225C18.9005 46.3125 18.6908 46.417 18.4716 46.417Z" fill="black"/>
<path d="M34.465 46.417C34.2458 46.417 34.0361 46.3125 33.9122 46.132L29.3181 39.4725C29.118 39.1685 29.2037 38.7505 29.5183 38.551C29.8137 38.361 30.2141 38.437 30.4142 38.7125L35.0083 45.372C35.218 45.676 35.1417 46.0845 34.8462 46.2935C34.7319 46.3885 34.5984 46.4265 34.465 46.417Z" fill="black"/>
<path d="M20.8067 9.42399H0.667188C0.295469 9.42399 0 9.12949 0 8.75899C0 8.38849 0.295469 8.09399 0.667188 8.09399H20.8067C21.1784 8.09399 21.4739 8.38849 21.4739 8.75899C21.4739 9.12949 21.1689 9.42399 20.8067 9.42399Z" fill="black"/>
<path d="M3.99361 7.25799C4.3305 7.25799 4.60361 6.98578 4.60361 6.64999C4.60361 6.3142 4.3305 6.04199 3.99361 6.04199C3.65671 6.04199 3.38361 6.3142 3.38361 6.64999C3.38361 6.98578 3.65671 7.25799 3.99361 7.25799Z" fill="black"/>
<path d="M10.2842 7.25799C10.6211 7.25799 10.8942 6.98578 10.8942 6.64999C10.8942 6.3142 10.6211 6.04199 10.2842 6.04199C9.94733 6.04199 9.67422 6.3142 9.67422 6.64999C9.67422 6.98578 9.94733 7.25799 10.2842 7.25799Z" fill="black"/>
<path d="M16.5653 7.25799C16.9022 7.25799 17.1753 6.98578 17.1753 6.64999C17.1753 6.3142 16.9022 6.04199 16.5653 6.04199C16.2284 6.04199 15.9553 6.3142 15.9553 6.64999C15.9553 6.98578 16.2284 7.25799 16.5653 7.25799Z" fill="black"/>
<path d="M35.1799 35.4635H31.1195C30.7478 35.4635 30.4524 35.169 30.4524 34.7985V31.8535C29.2514 31.5305 28.0886 31.046 27.0116 30.4285L24.9242 32.5185C24.6669 32.775 24.238 32.775 23.9806 32.5185L19.4819 28.025C19.2245 27.7685 19.2245 27.341 19.4819 27.0845L21.5692 25.004C20.9497 23.9305 20.4636 22.7715 20.1395 21.5745H17.1849C16.8131 21.5745 16.5177 21.28 16.5177 20.9095V14.5635C16.5177 14.193 16.8131 13.8985 17.1849 13.8985H20.1395C20.4636 12.7015 20.9497 11.5425 21.5692 10.469L19.4819 8.379C19.2245 8.1225 19.2245 7.695 19.4819 7.4385L23.9806 2.945C24.1045 2.8215 24.2761 2.755 24.4572 2.755C24.6288 2.755 24.8003 2.8215 24.9242 2.945L27.0116 5.035C28.0886 4.4175 29.2514 3.933 30.4524 3.61V0.665C30.4524 0.2945 30.7478 0 31.1195 0H35.1799C35.5516 0 35.847 0.2945 35.847 0.665V8.626C35.8566 8.664 35.8566 8.7115 35.8566 8.7495L35.8089 26.7235C35.8375 26.79 35.847 26.866 35.847 26.942V34.7985C35.847 35.169 35.5516 35.4635 35.1799 35.4635ZM31.7867 34.1335H34.5127V27.398C29.1561 27.056 25.0863 22.4485 25.4389 17.1095C25.7535 12.2455 29.6422 8.3695 34.5127 8.0655V1.33H31.7867V4.1325C31.7867 4.446 31.577 4.712 31.272 4.7785C29.8519 5.111 28.4984 5.6715 27.2594 6.4315C26.9925 6.593 26.6494 6.555 26.4397 6.3365L24.4477 4.351L20.883 7.8945L22.875 9.88C23.0942 10.0985 23.1324 10.4405 22.9703 10.697C22.1983 11.932 21.6359 13.281 21.3119 14.6965C21.2452 15.0005 20.9688 15.2095 20.6638 15.2095H17.852V20.2255H20.6638C20.9783 20.2255 21.2452 20.444 21.3119 20.7385C21.6455 22.154 22.1983 23.503 22.9703 24.738C23.1324 25.004 23.0942 25.346 22.875 25.555L20.883 27.5405L24.4381 31.0935L26.4302 29.108C26.6494 28.8895 26.9925 28.8515 27.2499 29.013C28.4889 29.7825 29.8424 30.343 31.2625 30.666C31.5675 30.7325 31.7772 31.008 31.7772 31.312V34.1335H31.7867ZM34.5222 9.3955C29.8995 9.7375 26.4397 13.7465 26.7828 18.354C27.0878 22.4675 30.357 25.745 34.4841 26.068L34.5222 9.3955Z" fill="black"/>
<path d="M42.7953 11.666H35.1513C34.7795 11.666 34.4841 11.3715 34.4841 11.001C34.4841 10.6305 34.7795 10.336 35.1513 10.336H42.7953C43.167 10.336 43.4625 10.6305 43.4625 11.001C43.4625 11.3715 43.167 11.666 42.7953 11.666Z" fill="black"/>
<path d="M45.5117 18.4015H35.1513C34.7795 18.4015 34.4841 18.107 34.4841 17.7365C34.4841 17.366 34.7795 17.0715 35.1513 17.0715H45.5213C45.893 17.0715 46.1884 17.366 46.1884 17.7365C46.1884 18.107 45.8834 18.4015 45.5117 18.4015Z" fill="black"/>
<path d="M42.7953 25.1275H35.1513C34.7795 25.1275 34.4841 24.833 34.4841 24.4625C34.4841 24.092 34.7795 23.7975 35.1513 23.7975H42.7953C43.167 23.7975 43.4625 24.092 43.4625 24.4625C43.4625 24.833 43.167 25.1275 42.7953 25.1275Z" fill="black"/>
<path d="M45.0447 13.908C43.4339 13.908 42.1281 12.6065 42.1281 11.001C42.1281 9.39549 43.4339 8.09399 45.0447 8.09399C46.6555 8.09399 47.9612 9.39549 47.9612 11.001C47.9612 12.6065 46.6555 13.908 45.0447 13.908ZM45.0447 9.42399C44.1678 9.42399 43.4625 10.127 43.4625 11.001C43.4625 11.875 44.1678 12.578 45.0447 12.578C45.9216 12.578 46.6269 11.875 46.6269 11.001C46.6269 10.127 45.9216 9.42399 45.0447 9.42399Z" fill="black"/>
<path d="M47.7706 20.6435C46.1598 20.6435 44.8541 19.342 44.8541 17.7365C44.8541 16.131 46.1598 14.8295 47.7706 14.8295C49.3814 14.8295 50.6872 16.131 50.6872 17.7365C50.6872 19.342 49.3814 20.6435 47.7706 20.6435ZM47.7706 16.15C46.8938 16.15 46.1884 16.853 46.1884 17.727C46.1884 18.601 46.8938 19.304 47.7706 19.304C48.6475 19.304 49.3528 18.601 49.3528 17.727C49.3528 16.8625 48.6475 16.15 47.7706 16.15Z" fill="black"/>
<path d="M45.0447 27.379C43.4339 27.379 42.1281 26.0775 42.1281 24.472C42.1281 22.8665 43.4339 21.565 45.0447 21.565C46.6555 21.565 47.9612 22.8665 47.9612 24.472C47.9612 26.068 46.6555 27.3695 45.0447 27.379ZM45.0447 22.8855C44.1678 22.8855 43.4625 23.5885 43.4625 24.4625C43.4625 25.3365 44.1678 26.0395 45.0447 26.0395C45.9216 26.0395 46.6269 25.3365 46.6269 24.4625C46.6269 23.598 45.9216 22.8855 45.0447 22.8855Z" fill="black"/>
<path d="M11.142 24.8995C10.7703 24.8995 10.4749 24.605 10.4749 24.2345C10.4749 23.921 10.6941 23.6455 11.0086 23.5885C12.2381 23.3225 13.0292 22.116 12.7624 20.8905C12.4955 19.665 11.285 18.8765 10.0555 19.1425C9.13095 19.342 8.4161 20.083 8.27313 21.0235C8.21595 21.3845 7.87282 21.6315 7.51063 21.5745C7.14845 21.5175 6.90063 21.1755 6.95782 20.8145C7.26282 18.848 9.10235 17.499 11.0849 17.803C13.0674 18.107 14.4113 19.9405 14.1063 21.9165C13.8775 23.3985 12.7528 24.586 11.285 24.8995C11.2278 24.89 11.1802 24.8995 11.142 24.8995Z" fill="black"/>
<path d="M6.75767 32.718C4.76564 32.718 3.14532 31.103 3.14532 29.1175C3.14532 27.854 3.81251 26.6855 4.89907 26.03C5.21361 25.84 5.62345 25.9445 5.81407 26.258C6.0047 26.5715 5.89986 26.98 5.58532 27.17C4.50829 27.816 4.15564 29.2125 4.80376 30.286C5.45189 31.3595 6.85298 31.711 7.93001 31.065C9.00704 30.419 9.3597 29.0225 8.71157 27.949C8.67345 27.892 8.63532 27.835 8.5972 27.778C8.38751 27.4835 8.45423 27.0655 8.7497 26.847C9.04517 26.638 9.45501 26.7045 9.67423 26.9895C10.8466 28.595 10.4939 30.856 8.8736 32.0245C8.26361 32.471 7.52017 32.718 6.75767 32.718Z" fill="black"/>
<path d="M7.32954 37.0405C5.33751 37.0405 3.71719 35.4255 3.71719 33.44C3.71719 32.585 4.02219 31.7585 4.58454 31.103C4.81329 30.818 5.23266 30.7705 5.5186 31.008C5.80454 31.236 5.85219 31.654 5.61391 31.939C5.60438 31.9485 5.59485 31.958 5.59485 31.9675C4.7561 32.908 4.84188 34.3425 5.78547 35.1785C6.72907 36.0145 8.16829 35.929 9.00704 34.9885C9.0261 34.9695 9.04516 34.941 9.06422 34.9125C9.30251 34.637 9.72188 34.599 10.0078 34.8365C10.2938 35.074 10.3224 35.492 10.0841 35.777C9.39782 36.575 8.38751 37.0405 7.32954 37.0405Z" fill="black"/>
<path d="M7.90141 41.3725C5.89984 41.3725 4.28906 39.7575 4.28906 37.7625C4.28906 36.9075 4.59406 36.081 5.14687 35.4255C5.38516 35.15 5.80453 35.112 6.09047 35.3495C6.36687 35.587 6.405 36.005 6.16672 36.29C5.34703 37.2495 5.46141 38.684 6.42406 39.4915C6.83391 39.843 7.35812 40.033 7.90141 40.033C8.24453 40.033 8.57812 39.957 8.89266 39.805C9.22625 39.6435 9.62656 39.786 9.77906 40.1185C9.94109 40.451 9.79813 40.85 9.46453 41.002C8.97844 41.249 8.44469 41.3725 7.90141 41.3725Z" fill="black"/>
<path d="M5.2422 27.2555C5.05157 27.2555 4.88001 27.1795 4.74657 27.037C3.22157 25.3935 3.32641 22.8285 4.98485 21.3085C5.6997 20.653 6.6147 20.273 7.58688 20.235C7.9586 20.2255 8.2636 20.5105 8.28266 20.8715C8.2922 21.242 8.00626 21.546 7.64407 21.565C6.13813 21.622 4.96579 22.895 5.02298 24.396C5.05157 25.042 5.29938 25.65 5.73782 26.125C5.98563 26.391 5.9761 26.809 5.70923 27.0655C5.57579 27.189 5.41376 27.2555 5.2422 27.2555Z" fill="black"/>
<path d="M12.5336 43.8995C10.5511 43.909 8.85453 42.4745 8.52094 40.527C8.44469 40.166 8.68297 39.8145 9.04516 39.748C9.40734 39.6815 9.76 39.9095 9.82672 40.2705C9.82672 40.28 9.83625 40.299 9.83625 40.3085C10.0936 41.7905 11.5042 42.788 12.9911 42.5315C13.0864 42.5125 13.1817 42.4935 13.2866 42.465C13.6392 42.37 14.0109 42.5885 14.0967 42.94C14.1825 43.282 13.9919 43.6335 13.6488 43.738C13.2961 43.8425 12.9148 43.8995 12.5336 43.8995Z" fill="black"/>
<path d="M13.4772 43.7665C13.1055 43.7665 12.81 43.472 12.81 43.1015V21.356C12.81 20.9855 13.1055 20.691 13.4772 20.691C13.8489 20.691 14.1444 20.9855 14.1444 21.356V43.1015C14.1444 43.472 13.8394 43.7665 13.4772 43.7665Z" fill="black"/>
</svg>
