<svg width="41" height="41" viewBox="0 0 41 41" fill="none" xmlns="http://www.w3.org/2000/svg">
<mask id="path-1-inside-1_1_438" fill="white">
<path d="M20.3119 40.1012C31.2845 39.9757 40.1821 30.9298 40.1461 19.9367C40.1101 8.94369 31.1541 0.10188 20.1814 0.227327C9.20879 0.352775 0.311242 9.3987 0.347211 20.3918C0.38318 31.3848 9.33926 40.2266 20.3119 40.1012ZM20.1847 1.22417C30.6086 1.105 39.117 9.5046 39.1511 19.9481C39.1853 30.3916 30.7325 38.9851 20.3086 39.1043C9.88474 39.2235 1.37635 30.8239 1.34218 20.3804C1.30801 9.93686 9.76079 1.34335 20.1847 1.22417Z"/>
</mask>
<path d="M20.3119 40.1012C31.2845 39.9757 40.1821 30.9298 40.1461 19.9367C40.1101 8.94369 31.1541 0.10188 20.1814 0.227327C9.20879 0.352775 0.311242 9.3987 0.347211 20.3918C0.38318 31.3848 9.33926 40.2266 20.3119 40.1012ZM20.1847 1.22417C30.6086 1.105 39.117 9.5046 39.1511 19.9481C39.1853 30.3916 30.7325 38.9851 20.3086 39.1043C9.88474 39.2235 1.37635 30.8239 1.34218 20.3804C1.30801 9.93686 9.76079 1.34335 20.1847 1.22417Z" fill="white"/>
<path d="M20.3168 41.6012C32.1204 41.4662 41.6847 31.7385 41.646 19.9196L38.6462 19.9539C38.6795 30.1211 30.4487 38.4852 20.307 38.6012L20.3168 41.6012ZM41.646 19.9196C41.6073 8.10071 31.9801 -1.40761 20.1765 -1.27266L20.1863 1.72732C30.328 1.61137 38.6129 9.78667 38.6462 19.9539L41.646 19.9196ZM20.1765 -1.27266C8.37293 -1.13772 -1.19136 8.59002 -1.15269 20.4089L1.84711 20.3746C1.81385 10.2074 10.0447 1.84327 20.1863 1.72732L20.1765 -1.27266ZM-1.15269 20.4089C-1.11402 32.2278 8.51321 41.7361 20.3168 41.6012L20.307 38.6012C10.1653 38.7171 1.88038 30.5418 1.84711 20.3746L-1.15269 20.4089ZM20.1896 2.72416C29.7825 2.61449 37.6198 10.3476 37.6512 19.9653L40.651 19.931C40.6142 8.6616 31.4346 -0.404495 20.1798 -0.275821L20.1896 2.72416ZM37.6512 19.9653C37.6827 29.5829 29.8967 37.4947 20.3037 37.6043L20.3135 40.6043C31.5684 40.4756 40.6879 31.2003 40.651 19.931L37.6512 19.9653ZM20.3037 37.6043C10.7108 37.714 2.87355 29.9809 2.84209 20.3632L-0.157719 20.3975C-0.120845 31.6669 9.0587 40.733 20.3135 40.6043L20.3037 37.6043ZM2.84209 20.3632C2.81062 10.7456 10.5966 2.83384 20.1896 2.72416L20.1798 -0.275821C8.92494 -0.147146 -0.194592 9.12816 -0.157719 20.3975L2.84209 20.3632Z" fill="white" mask="url(#path-1-inside-1_1_438)"/>
<path d="M24.6706 14.0504L24.6719 14.0516C24.6715 14.0512 24.671 14.0508 24.6706 14.0504Z" fill="white" stroke="white" stroke-width="1.5"/>
</svg>
