<svg width="54" height="45" viewBox="0 0 54 45" fill="none" xmlns="http://www.w3.org/2000/svg">
<path fill-rule="evenodd" clip-rule="evenodd" d="M15.3732 38.0484C15.3727 38.216 15.3059 38.3767 15.1873 38.4953C15.0687 38.6138 14.9079 38.6806 14.7402 38.6811H4.4148C4.24692 38.6811 4.08591 38.6144 3.9672 38.4958C3.84849 38.3771 3.7818 38.2162 3.7818 38.0484C3.7818 37.8806 3.84849 37.7196 3.9672 37.601C4.08591 37.4823 4.24692 37.4156 4.4148 37.4156H14.7402C14.908 37.416 15.0688 37.4827 15.1874 37.6013C15.3061 37.7199 15.3729 37.8807 15.3732 38.0484ZM15.3732 35.1864C15.3737 35.2696 15.3576 35.3521 15.326 35.4291C15.2943 35.5061 15.2477 35.576 15.1889 35.6349C15.13 35.6937 15.06 35.7403 14.983 35.7719C14.906 35.8036 14.8235 35.8196 14.7402 35.8191H4.4148C4.24692 35.8191 4.08591 35.7525 3.9672 35.6338C3.84849 35.5151 3.7818 35.3542 3.7818 35.1864C3.7818 35.0186 3.84849 34.8576 3.9672 34.739C4.08591 34.6203 4.24692 34.5537 4.4148 34.5537H14.7402C14.9079 34.5541 15.0687 34.6209 15.1873 34.7395C15.3059 34.8581 15.3727 35.0187 15.3732 35.1864ZM3.78 32.3244C3.78079 32.1568 3.84773 31.9964 3.96627 31.8779C4.08481 31.7594 4.24536 31.6925 4.413 31.6917H11.7036C11.8715 31.6917 12.0325 31.7583 12.1512 31.877C12.2699 31.9957 12.3366 32.1566 12.3366 32.3244C12.3366 32.4922 12.2699 32.6532 12.1512 32.7718C12.0325 32.8905 11.8715 32.9571 11.7036 32.9571H4.4148C4.33143 32.9577 4.24878 32.9417 4.17163 32.9101C4.09448 32.8786 4.02436 32.832 3.96533 32.7732C3.90629 32.7143 3.85952 32.6444 3.82771 32.5673C3.7959 32.4903 3.77968 32.4077 3.78 32.3244ZM12.6 27.4971C11.5381 28.111 10.2882 28.3157 9.08582 28.0727C7.88339 27.8297 6.81131 27.1557 6.0714 26.1776L10.0914 23.8584L14.199 26.0385C13.7793 26.6359 13.2334 27.1338 12.6 27.4971ZM5.22 21.8403C4.92851 22.9139 5.00562 24.0542 5.439 25.0789L9.4626 22.7591L9.6336 18.1273C8.9055 18.195 8.20043 18.4181 7.566 18.7816C6.99131 19.1101 6.48787 19.5498 6.08507 20.075C5.68227 20.6001 5.38819 21.2002 5.22 21.8403ZM14.4414 20.6204C14.0691 19.9766 13.558 19.4237 12.9453 19.0019C12.3326 18.5801 11.6335 18.2999 10.899 18.1818L10.7286 22.7687L14.7906 24.9152C15.0544 24.2185 15.16 23.472 15.0998 22.7296C15.0396 21.9871 14.8151 21.2673 14.4426 20.6222L14.4414 20.6204ZM6.9324 17.6817C5.85262 18.3041 4.98181 19.2327 4.43018 20.35C3.87855 21.4672 3.67088 22.723 3.83346 23.9583C3.99604 25.1935 4.52155 26.3529 5.34351 27.2895C6.16546 28.2262 7.24691 28.898 8.451 29.2201C8.98616 29.363 9.53749 29.4363 10.0914 29.4384C11.0567 29.436 12.0086 29.2118 12.8734 28.7833C13.7383 28.3547 14.4931 27.7332 15.0796 26.9668C15.666 26.2003 16.0684 25.3094 16.2557 24.3629C16.4429 23.4163 16.4101 22.4393 16.1597 21.5075C15.9092 20.5756 15.4479 19.7137 14.8113 18.9883C14.1747 18.263 13.3799 17.6935 12.4882 17.324C11.5965 16.9544 10.6317 16.7947 9.66841 16.857C8.70511 16.9193 7.76901 17.2021 6.9324 17.6835V17.6817ZM44.4324 20.8675C44.1693 20.8676 43.912 20.7897 43.6932 20.6436C43.4744 20.4974 43.3039 20.2897 43.2032 20.0466C43.1026 19.8036 43.0764 19.5362 43.1279 19.2782C43.1795 19.0203 43.3064 18.7834 43.4927 18.5976C43.679 18.4118 43.9162 18.2855 44.1744 18.2346C44.4326 18.1837 44.7001 18.2105 44.943 18.3116C45.1859 18.4127 45.3933 18.5836 45.539 18.8027C45.6847 19.0217 45.7621 19.279 45.7614 19.5421C45.7606 19.8939 45.6202 20.231 45.3711 20.4795C45.1219 20.728 44.7844 20.8675 44.4324 20.8675ZM36.7482 26.4631C36.4851 26.4632 36.2278 26.3853 36.009 26.2392C35.7902 26.093 35.6197 25.8853 35.519 25.6423C35.4184 25.3992 35.3922 25.1318 35.4437 24.8738C35.4953 24.6159 35.6222 24.379 35.8085 24.1932C35.9948 24.0075 36.232 23.8811 36.4902 23.8302C36.7484 23.7793 37.0159 23.8061 37.2588 23.9072C37.5017 24.0083 37.7091 24.1792 37.8548 24.3983C38.0005 24.6173 38.0779 24.8746 38.0772 25.1377C38.0764 25.4895 37.936 25.8266 37.6869 26.0751C37.4377 26.3236 37.1002 26.4631 36.7482 26.4631ZM29.0646 23.6713C28.8016 23.6715 28.5445 23.5938 28.3256 23.448C28.1068 23.3022 27.9361 23.0949 27.8351 22.8522C27.7342 22.6094 27.7075 22.3422 27.7584 22.0843C27.8093 21.8264 27.9355 21.5894 28.1211 21.4032C28.3067 21.217 28.5434 21.0899 28.8012 21.0381C29.0591 20.9863 29.3265 21.0121 29.5697 21.1121C29.8129 21.2122 30.0209 21.382 30.1676 21.6002C30.3142 21.8184 30.3929 22.0752 30.3936 22.3381C30.3933 22.6907 30.2533 23.0289 30.0043 23.2788C29.7553 23.5286 29.4174 23.6697 29.0646 23.6713ZM21.3846 29.2669C21.1216 29.2674 20.8643 29.1899 20.6453 29.0442C20.4263 28.8986 20.2554 28.6913 20.1543 28.4486C20.0531 28.2059 20.0262 27.9387 20.077 27.6807C20.1278 27.4227 20.2539 27.1855 20.4395 26.9992C20.6251 26.8129 20.8617 26.6857 21.1196 26.6338C21.3775 26.5819 21.6449 26.6076 21.8882 26.7076C22.1315 26.8076 22.3396 26.9775 22.4863 27.1957C22.633 27.4139 22.7117 27.6708 22.7124 27.9337C22.7118 28.286 22.5719 28.6239 22.3232 28.8736C22.0745 29.1233 21.7371 29.2647 21.3846 29.2669ZM44.4366 16.9458C43.7484 16.9477 43.089 17.2222 42.6029 17.7092C42.1168 18.1962 41.8437 18.8559 41.8434 19.5439C41.8426 19.8744 41.9062 20.202 42.0306 20.5083L38.412 23.1441C38.1344 22.9119 37.8111 22.7405 37.4631 22.641C37.115 22.5415 36.75 22.5161 36.3915 22.5665C36.033 22.6168 35.6891 22.7418 35.382 22.9334C35.0749 23.1249 34.8114 23.3788 34.6086 23.6785L31.65 22.599C31.6584 22.5162 31.6626 22.4262 31.6626 22.3357C31.6628 21.953 31.5783 21.5751 31.4152 21.2289C31.2521 20.8828 31.0143 20.577 30.719 20.3335C30.4237 20.09 30.0781 19.9149 29.7071 19.8207C29.3361 19.7264 28.9488 19.7154 28.573 19.7885C28.1973 19.8615 27.8423 20.0168 27.5337 20.2431C27.225 20.4694 26.9703 20.7612 26.7877 21.0975C26.6052 21.4339 26.4994 21.8064 26.4779 22.1885C26.4564 22.5705 26.5197 22.9526 26.6634 23.3073L23.04 25.9455C22.5863 25.5678 22.0173 25.356 21.4269 25.3452C20.8366 25.3343 20.2602 25.525 19.7929 25.8858C19.3256 26.2466 18.9954 26.7559 18.8567 27.3296C18.7181 27.9033 18.7794 28.5071 19.0304 29.0413C19.2814 29.5756 19.7072 30.0082 20.2374 30.2679C20.7676 30.5276 21.3706 30.5988 21.9468 30.4697C22.5229 30.3406 23.0378 30.019 23.4064 29.5579C23.775 29.0968 23.9753 28.5239 23.9742 27.9337C23.9744 27.6032 23.9102 27.2758 23.7852 26.9699L27.4044 24.331C27.6825 24.5636 28.0065 24.7352 28.3552 24.8346C28.7039 24.9341 29.0696 24.9592 29.4287 24.9083C29.7877 24.8574 30.1321 24.7316 30.4394 24.5392C30.7467 24.3468 31.0101 24.092 31.2126 23.7913L34.1682 24.8678C34.1592 24.9584 34.1544 25.0477 34.1544 25.1389C34.1542 25.5215 34.2387 25.8995 34.4018 26.2456C34.5649 26.5918 34.8027 26.8976 35.098 27.141C35.3933 27.3845 35.7389 27.5596 36.1099 27.6539C36.4809 27.7481 36.8682 27.7591 37.244 27.6861C37.6197 27.613 37.9747 27.4578 38.2833 27.2315C38.592 27.0051 38.8467 26.7133 39.0293 26.377C39.2118 26.0407 39.3176 25.6681 39.3391 25.2861C39.3606 24.904 39.2972 24.522 39.1536 24.1673L42.7734 21.5314C43.1517 21.8474 43.6122 22.0489 44.1011 22.1125C44.5899 22.176 45.0867 22.099 45.5332 21.8903C45.9798 21.6816 46.3575 21.3499 46.6222 20.9342C46.8868 20.5185 47.0274 20.036 47.0274 19.5433C47.0268 18.8551 46.7533 18.1953 46.2669 17.7083C45.7805 17.2213 45.1208 16.9469 44.4324 16.9452L44.4366 16.9458ZM31.8366 4.57185H47.9712V6.46944H31.8348V4.57185H31.8366ZM31.2 7.7349H48.6C48.6833 7.73538 48.7658 7.71934 48.8428 7.68771C48.9198 7.65608 48.9898 7.60949 49.0487 7.55064C49.1075 7.49179 49.1541 7.42185 49.1858 7.34487C49.2174 7.26789 49.2335 7.18539 49.233 7.10217V3.93912C49.2321 3.77249 49.1656 3.61292 49.0479 3.49486C48.9303 3.37681 48.7709 3.30976 48.6042 3.30819H31.2042C31.0365 3.30882 30.8759 3.37569 30.7573 3.49421C30.6387 3.61273 30.5718 3.7733 30.5712 3.94092V7.10397C30.571 7.18667 30.5872 7.26859 30.6187 7.34505C30.6502 7.42151 30.6965 7.49102 30.7549 7.54961C30.8133 7.6082 30.8826 7.65471 30.959 7.68651C31.0354 7.7183 31.1173 7.73474 31.2 7.7349ZM19.5984 4.58684C19.7842 4.58684 19.9658 4.64197 20.1202 4.74522C20.2746 4.84848 20.3949 4.99522 20.4658 5.16686C20.5367 5.3385 20.555 5.52732 20.5184 5.70939C20.4819 5.89145 20.3921 6.05858 20.2605 6.18959C20.1288 6.32061 19.9612 6.40961 19.7789 6.44533C19.5966 6.48105 19.4078 6.46187 19.2364 6.39023C19.065 6.31859 18.9187 6.19771 18.8161 6.04291C18.7135 5.8881 18.6592 5.70634 18.66 5.52064C18.6611 5.2727 18.7604 5.03529 18.9361 4.8603C19.1119 4.68532 19.3504 4.587 19.5984 4.58684ZM19.5984 7.7271C20.0341 7.7271 20.4601 7.598 20.8224 7.3561C21.1847 7.11421 21.4672 6.77038 21.6341 6.36807C21.801 5.96576 21.8449 5.52302 21.7601 5.09581C21.6754 4.66859 21.4658 4.27608 21.158 3.96786C20.8501 3.65964 20.4578 3.44955 20.0305 3.36415C19.6033 3.27875 19.1603 3.32186 18.7575 3.48803C18.3548 3.65421 18.0103 3.936 17.7678 4.29778C17.5252 4.65957 17.3953 5.08511 17.3946 5.52064C17.3944 5.81016 17.4512 6.0969 17.5618 6.36447C17.6724 6.63204 17.8347 6.87521 18.0393 7.0801C18.244 7.28499 18.487 7.44758 18.7545 7.5586C19.022 7.66961 19.3088 7.72687 19.5984 7.7271ZM12.8466 4.58684C13.0324 4.58673 13.2141 4.64175 13.3685 4.74493C13.523 4.84811 13.6434 4.99481 13.7144 5.16645C13.7854 5.33808 13.8038 5.52691 13.7673 5.70902C13.7308 5.89113 13.6411 6.05831 13.5095 6.18938C13.3778 6.32046 13.2102 6.40952 13.0279 6.44528C12.8456 6.48105 12.6567 6.46191 12.4853 6.39029C12.3139 6.31867 12.1676 6.19779 12.0649 6.04297C11.9623 5.88815 11.908 5.70637 11.9088 5.52064C11.9102 5.2728 12.0096 5.03557 12.1853 4.86065C12.3609 4.68573 12.5986 4.58731 12.8466 4.58684ZM12.8466 7.7271C13.2823 7.7271 13.7083 7.598 14.0706 7.3561C14.4329 7.11421 14.7154 6.77038 14.8823 6.36807C15.0492 5.96576 15.0931 5.52302 15.0083 5.09581C14.9236 4.66859 14.714 4.27608 14.4062 3.96786C14.0983 3.65964 13.706 3.44955 13.2787 3.36415C12.8515 3.27875 12.4085 3.32186 12.0057 3.48803C11.603 3.65421 11.2585 3.936 11.016 4.29778C10.7734 4.65957 10.6435 5.08511 10.6428 5.52064C10.6426 6.10526 10.8747 6.66603 11.2879 7.07975C11.7011 7.49347 12.2617 7.72631 12.8466 7.7271ZM6.0948 4.58684C6.28058 4.58684 6.46217 4.64197 6.61658 4.74522C6.77099 4.84848 6.89126 4.99522 6.96216 5.16686C7.03306 5.3385 7.0514 5.52732 7.01485 5.70939C6.9783 5.89145 6.88851 6.05858 6.75685 6.18959C6.62519 6.32061 6.45759 6.40961 6.27528 6.44533C6.09298 6.48105 5.90417 6.46187 5.73277 6.39023C5.56137 6.31859 5.41511 6.19771 5.3125 6.04291C5.2099 5.8881 5.15557 5.70634 5.1564 5.52064C5.15783 5.2727 5.25728 5.03537 5.43308 4.86044C5.60887 4.6855 5.84674 4.58716 6.0948 4.58684ZM6.0948 7.7271C6.53049 7.72698 6.95637 7.59778 7.31863 7.35581C7.68088 7.11384 7.96326 6.76998 8.13007 6.36765C8.29688 5.96533 8.34065 5.52262 8.25584 5.09544C8.17103 4.66827 7.96145 4.2758 7.65358 3.96765C7.34571 3.65949 6.95336 3.44946 6.52612 3.36411C6.09888 3.27875 5.65591 3.3219 5.25319 3.48809C4.85048 3.65429 4.50608 3.93607 4.26351 4.29784C4.02095 4.65962 3.89111 5.08514 3.8904 5.52064C3.89024 6.10536 4.12234 6.66622 4.5357 7.07996C4.94905 7.4937 5.50983 7.72647 6.0948 7.7271ZM3.9348 1.26546C3.58454 1.26538 3.2377 1.33428 2.91409 1.46823C2.59048 1.60217 2.29644 1.79853 2.04877 2.0461C1.8011 2.29366 1.60465 2.58758 1.47065 2.91105C1.33665 3.23452 1.26772 3.58121 1.2678 3.93132V9.67807L52.737 9.79802V3.93132C52.737 3.58119 52.668 3.23448 52.5339 2.911C52.3999 2.58753 52.2034 2.29362 51.9556 2.04606C51.7079 1.7985 51.4138 1.60215 51.0902 1.46821C50.7666 1.33428 50.4197 1.26538 50.0694 1.26546H3.9348ZM50.067 40.9331C50.7741 40.9319 51.4519 40.6505 51.9519 40.1507C52.4519 39.651 52.7333 38.9735 52.7346 38.2667V11.0635L1.2654 10.9435V38.2667C1.26651 38.9734 1.54783 39.6509 2.04774 40.1507C2.54764 40.6505 3.22535 40.9319 3.9324 40.9331H18.24V33.4843C18.2397 33.4011 18.2558 33.3187 18.2875 33.2418C18.3192 33.1649 18.3659 33.095 18.4247 33.0362C18.4835 32.9774 18.5534 32.9308 18.6304 32.8991C18.7073 32.8674 18.7898 32.8513 18.873 32.8516H23.8878C23.971 32.8513 24.0535 32.8674 24.1304 32.8991C24.2074 32.9308 24.2773 32.9774 24.3361 33.0362C24.3949 33.095 24.4416 33.1649 24.4733 33.2418C24.505 33.3187 24.5211 33.4011 24.5208 33.4843V40.9331H25.9248V27.8887C25.9244 27.8056 25.9405 27.7231 25.9721 27.6462C26.0038 27.5693 26.0503 27.4994 26.1091 27.4406C26.1679 27.3818 26.2378 27.3352 26.3147 27.3035C26.3916 27.2718 26.474 27.2557 26.5572 27.256H31.5726C31.6558 27.2557 31.7382 27.2719 31.815 27.3037C31.8919 27.3354 31.9617 27.382 32.0205 27.4408C32.0793 27.4996 32.1259 27.5695 32.1575 27.6463C32.1892 27.7232 32.2053 27.8056 32.205 27.8887V40.9331H33.609V30.6829C33.6093 30.5152 33.6761 30.3544 33.7948 30.2359C33.9134 30.1173 34.0742 30.0505 34.242 30.0502H39.2568C39.4245 30.0507 39.5853 30.1175 39.7039 30.236C39.8225 30.3546 39.8893 30.5152 39.8898 30.6829V40.9331H41.2932V25.0867C41.2937 24.9191 41.3605 24.7585 41.4792 24.64C41.5978 24.5216 41.7585 24.4549 41.9262 24.4546H46.9416C47.1091 24.4552 47.2696 24.522 47.3881 24.6404C47.5065 24.7588 47.5734 24.9192 47.574 25.0867V40.9331H50.067ZM42.5598 43.7345V25.7194H46.3092V43.7345H42.5598ZM23.2554 43.7345H19.5066V34.117H23.2554V43.7345ZM30.9402 43.7345H27.1908V28.5214H30.9402V43.7345ZM38.6244 43.7345H34.8756V31.3162H38.6244V43.7345ZM39.8904 42.198H41.2938V43.7345H39.8904V42.198ZM32.2056 42.198H33.6096V43.7345H32.2056V42.198ZM24.5214 42.198H25.9254V43.7345H24.5214V42.198ZM3.9324 42.198H18.24V43.7345H16.23C16.0621 43.7345 15.9011 43.8012 15.7824 43.9199C15.6637 44.0385 15.597 44.1995 15.597 44.3673C15.597 44.5351 15.6637 44.696 15.7824 44.8147C15.9011 44.9333 16.0621 45 16.23 45H49.5852C49.7531 45 49.9141 44.9333 50.0328 44.8147C50.1515 44.696 50.2182 44.5351 50.2182 44.3673C50.2182 44.1995 50.1515 44.0385 50.0328 43.9199C49.9141 43.8012 49.7531 43.7345 49.5852 43.7345H47.5746V42.198H50.067C51.1098 42.197 52.1096 41.7826 52.847 41.0455C53.5844 40.3084 53.999 39.309 54 38.2667V3.93132C53.9989 2.88901 53.5842 1.88971 52.8468 1.15269C52.1095 0.41566 51.1098 0.00111129 50.067 0H3.9324C2.8897 0.00111156 1.89003 0.415679 1.15279 1.15272C0.415545 1.88976 0.000952951 2.88907 0 3.93132V38.2667C0.000952951 39.3089 0.415545 40.3082 1.15279 41.0453C1.89003 41.7823 2.8897 42.1969 3.9324 42.198Z" fill="black"/>
</svg>
