<svg width="32" height="23" viewBox="0 0 32 23" fill="none" xmlns="http://www.w3.org/2000/svg">
<path d="M30.6033 4.22197C30.2521 2.9172 29.2233 1.88844 27.9185 1.53715C25.5348 0.884766 15.9999 0.884766 15.9999 0.884766C15.9999 0.884766 6.46506 0.884766 4.08134 1.51206C2.80166 1.86334 1.74781 2.9172 1.39652 4.22197C0.769226 6.60569 0.769226 11.5488 0.769226 11.5488C0.769226 11.5488 0.769226 16.5169 1.39652 18.8756C1.74781 20.1803 2.77657 21.2091 4.08134 21.5604C6.49015 22.2128 15.9999 22.2128 15.9999 22.2128C15.9999 22.2128 25.5348 22.2128 27.9185 21.5855C29.2233 21.2342 30.2521 20.2054 30.6033 18.9007C31.2306 16.5169 31.2306 11.5739 31.2306 11.5739C31.2306 11.5739 31.2557 6.60569 30.6033 4.22197Z" fill="#FF0000"/>
<path d="M12.9639 16.1156L20.8929 11.5489L12.9639 6.98218V16.1156Z" fill="white"/>
</svg>
